<?xml version="1.0" encoding="UTF-8"?>
<svg version="1.1" xmlns="http://www.w3.org/2000/svg" width="478" height="349">
<path d="M0 0 C157.74 0 315.48 0 478 0 C478 115.17 478 230.34 478 349 C320.26 349 162.52 349 0 349 C0 233.83 0 118.66 0 0 Z " fill="#FDFDFC" transform="translate(0,0)"/>
<path d="M0 0 C12.1355787 4.63206026 21.14944077 12.37611665 27 24 C29.61851193 30.35924325 30.11766353 36.89802849 30.17700195 43.72631836 C30.18983719 45.02133774 30.20267242 46.31635712 30.21589661 47.65061951 C30.22406374 49.04702364 30.23150752 50.44343216 30.23828125 51.83984375 C30.24235678 52.55158815 30.2464323 53.26333256 30.25063133 53.99664497 C30.27139489 57.76004867 30.2857414 61.52341689 30.29516602 65.28686523 C30.30624519 69.15471529 30.34068967 73.02199249 30.38033772 76.88963985 C30.40657115 79.88294997 30.41486346 82.87612432 30.41844749 85.86953926 C30.42329153 87.29479429 30.43484271 88.72004414 30.45348549 90.14518547 C30.55189013 98.16196871 30.50047551 104.21061037 26 111 C23.7109375 113.05859375 23.7109375 113.05859375 21.375 114.4375 C20.21097656 115.14712891 20.21097656 115.14712891 19.0234375 115.87109375 C15.17662191 118.01729009 12.80773336 118.1295153 8.34189415 118.1398077 C7.64637327 118.14275912 6.9508524 118.14571055 6.23425514 118.14875141 C3.88022899 118.15748259 1.52625174 118.15902668 -0.82778931 118.16062927 C-2.52323282 118.16535751 -4.2186752 118.17050805 -5.91411626 118.17604691 C-10.59159848 118.18998778 -15.2690729 118.19754642 -19.94657063 118.2040199 C-23.95403512 118.21038089 -27.96148672 118.22045241 -31.96894319 118.23058056 C-45.17493622 118.26394169 -58.38093709 118.28543311 -71.58695847 118.30378041 C-75.02452638 118.30857348 -78.46209397 118.31355704 -81.89966154 118.31858563 C-103.23448601 118.34955544 -124.56931316 118.37624843 -145.90415382 118.39300442 C-150.84837473 118.3969541 -155.7925956 118.40095706 -160.73681641 118.4050293 C-162.58017211 118.40654184 -162.58017211 118.40654184 -164.46076731 118.40808494 C-184.37219875 118.42509501 -204.28350597 118.46620628 -224.19487675 118.51705229 C-244.62560254 118.5687964 -265.0562644 118.5979425 -285.48705518 118.6052013 C-296.96298279 118.60986768 -308.43870702 118.62466207 -319.91456985 118.6649456 C-329.68743083 118.69920888 -339.46005175 118.71319993 -349.23296936 118.70052146 C-354.22037528 118.69468587 -359.20727328 118.69862188 -364.19460297 118.7286911 C-368.76083566 118.75599704 -373.32619822 118.7555978 -377.89244978 118.73318065 C-379.54394742 118.72995065 -381.19550274 118.73686729 -382.84690423 118.75497787 C-397.76493942 118.90865703 -397.76493942 118.90865703 -403.65216434 113.50614846 C-410.65728417 105.67822794 -410.72247629 97.05607711 -410.59375 86.97265625 C-410.59203408 85.53356527 -410.59210945 84.09447117 -410.59387207 82.65538025 C-410.59222806 79.65381546 -410.573705 76.65300585 -410.54199219 73.65161133 C-410.50235313 69.83457332 -410.49794871 66.01852259 -410.50545502 62.20131779 C-410.50854825 59.23354807 -410.49632089 56.26599373 -410.47932434 53.2982769 C-410.47237091 51.89230134 -410.46916033 50.48630141 -410.47001648 49.08030891 C-410.45657466 34.55722952 -407.95505873 21.61563782 -397.7890625 10.60546875 C-392.61136001 5.84304274 -387.27760021 1 -380 1 C-380.0721875 1.62261719 -380.144375 2.24523437 -380.21875 2.88671875 C-382.35426646 24.15290352 -381.14717079 42.43445039 -372 62 C-371.56300781 62.95390625 -371.12601562 63.9078125 -370.67578125 64.890625 C-368.2790161 70.20630023 -368.2790161 70.20630023 -364 74 C-358.70022855 74.42740092 -355.25251759 74.52351458 -351 71 C-348.77845066 67.65781758 -347.3004819 64.3991173 -346.01953125 60.60546875 C-345.48658447 59.05956055 -345.48658447 59.05956055 -344.94287109 57.48242188 C-344.56984863 56.39509766 -344.19682617 55.30777344 -343.8125 54.1875 C-338.95625805 40.40793831 -333.87452511 27.03908827 -324 16 C-323.54753906 15.44441406 -323.09507812 14.88882813 -322.62890625 14.31640625 C-320.72875112 12.13211577 -319.5472894 11.05760941 -316.625 10.75 C-303.12630622 17.17794942 -296.74179077 35.77109096 -292 49 C-291.45515042 50.76359207 -290.92946162 52.53342951 -290.4375 54.3125 C-288.61138828 60.83272711 -286.10430792 68.70487187 -280.52734375 72.828125 C-276.65649065 74.62295642 -273.00526006 74.69279618 -268.96484375 73.296875 C-260.5788472 67.76178383 -256.72221143 49.33117727 -254.1796875 39.984375 C-252.19096975 30.18083681 -252.82818115 19.95345819 -253 10 C-246.30021485 9.89170421 -239.80393775 10.33523707 -233.140625 10.98828125 C-220.82119557 12.09818454 -208.57957822 12.27307554 -196.21679688 12.20581055 C-192.73820674 12.18743771 -189.25988395 12.18530286 -185.78125 12.18554688 C-173.88318878 12.1663422 -162.04165721 11.89491181 -150.16308594 11.22045898 C-145.35638327 10.95121419 -140.56351593 10.87912714 -135.75 10.9375 C-134.98171875 10.94201172 -134.2134375 10.94652344 -133.421875 10.95117188 C-131.61454534 10.96246769 -129.8072582 10.98035589 -128 11 C-127.9906543 11.62342285 -127.98130859 12.2468457 -127.97167969 12.88916016 C-127.74005322 25.21305088 -127.30451807 36.35328181 -123 48 C-122.52473553 49.37324657 -122.05084648 50.74696971 -121.578125 52.12109375 C-117.42383672 63.98831523 -117.42383672 63.98831523 -110 74 C-104.71249551 74.43340201 -101.24282736 74.51548553 -97 71 C-94.67398892 67.51287999 -93.15811344 64.04147626 -91.765625 60.09765625 C-91.35997314 58.96634277 -90.95432129 57.8350293 -90.53637695 56.66943359 C-89.89962036 54.88400146 -89.89962036 54.88400146 -89.25 53.0625 C-84.35219301 39.62358005 -79.57248774 26.88410265 -70 16 C-69.54625 15.44183594 -69.0925 14.88367188 -68.625 14.30859375 C-66.7246277 12.12910427 -65.54355173 11.05721597 -62.625 10.75 C-50.06893578 16.7290782 -43.5955049 33.80312536 -39 46 C-38.15562182 48.59699508 -37.37931796 51.19836203 -36.64453125 53.828125 C-35.7000757 57.01065402 -34.36785781 59.979314 -33 63 C-32.525625 64.216875 -32.05125 65.43375 -31.5625 66.6875 C-29.54489003 71.00969952 -29.54489003 71.00969952 -26 74 C-21.33955608 74.6792898 -16.99054345 74.71783926 -13 72 C-8.80729797 65.75484959 -6.26908558 58.36359992 -3.75 51.3125 C-3.5039502 50.62470459 -3.25790039 49.93690918 -3.00439453 49.22827148 C-0.12634689 40.87915259 1.32604637 33.15522187 1.1875 24.3125 C1.18105469 23.44979492 1.17460937 22.58708984 1.16796875 21.69824219 C1.0817728 14.4389273 0.67032303 7.22991273 0 0 Z " fill="#FCFCFC" transform="translate(430,190)"/>
<path d="M0 0 C6.03107021 6.38583904 7.34353196 13.97705894 8.21875 22.4375 C8.54875 23.4275 8.87875 24.4175 9.21875 25.4375 C11.40398835 26.03798905 13.547583 26.25912664 15.796875 26.51953125 C19.43069105 27.89686475 21.39265149 30.11276102 23.21875 33.4375 C24.34974653 37.09726116 24.95717614 40.78007397 25.53125 44.5625 C25.69947266 45.55121094 25.86769531 46.53992188 26.04101562 47.55859375 C26.71088602 51.59968944 27.21875 55.32912367 27.21875 59.4375 C28.73674194 59.47508423 28.73674194 59.47508423 30.28540039 59.51342773 C34.11556223 59.60909501 37.94560799 59.70889593 41.77563477 59.80981445 C43.41916143 59.85257209 45.06271595 59.89427506 46.70629883 59.93481445 C56.12328877 60.16786553 65.49328891 60.54944693 74.89038086 61.21704102 C101.58092088 62.98492465 128.58854262 60.1595969 155.21875 58.4375 C155.29915527 57.86306152 155.37956055 57.28862305 155.46240234 56.69677734 C155.83372859 54.0678299 156.21366616 51.440195 156.59375 48.8125 C156.72007812 47.90886719 156.84640625 47.00523437 156.9765625 46.07421875 C158.95832921 32.49911681 158.95832921 32.49911681 165.21875 27.4375 C166.7772566 26.92518814 168.34010873 26.42597493 169.90625 25.9375 C172.32479465 25.09437065 172.32479465 25.09437065 174.21875 23.4375 C175.22692781 20.17207453 175.53984942 17.0948749 175.85546875 13.6953125 C176.67970004 6.30381895 180.2744219 1.61515114 185.9296875 -3.0234375 C195.02907681 -9.14145693 204.43013603 -9.79704591 215.05102539 -9.85766602 C216.43849971 -9.86909019 217.8259335 -9.88938727 219.21313477 -9.91918945 C231.65131043 -10.18579626 243.58504426 -8.95172298 253.34765625 -0.4609375 C258.48288893 4.74934033 260.30611762 8.87963126 261.15625 16.1875 C261.67407592 21.22689299 261.67407592 21.22689299 264.90625 25 C265.999375 25.474375 267.0925 25.94875 268.21875 26.4375 C272.0918507 28.2427588 274.79593843 29.74690776 277.09375 33.5 C278.79639868 38.28412941 278.95486412 43.40546927 279.21875 48.4375 C280.37375 48.499375 281.52875 48.56125 282.71875 48.625 C287.01015674 49.14240365 289.84243347 50.74934703 293.359375 53.18359375 C295.24720167 54.45668694 297.16466842 55.46044792 299.21875 56.4375 C299.21875 57.0975 299.21875 57.7575 299.21875 58.4375 C300.08886719 58.82421875 300.08886719 58.82421875 300.9765625 59.21875 C310.58975437 64.44403896 316.54420825 75.21610149 319.67578125 85.33203125 C320.90300232 90.09082374 321.35237362 94.45232963 321.37988281 99.37988281 C321.38484772 100.05865982 321.38981262 100.73743683 321.39492798 101.43678284 C321.40947305 103.67140741 321.41633931 105.90596096 321.421875 108.140625 C321.42470238 108.90811821 321.42752975 109.67561142 321.43044281 110.466362 C321.4454058 114.52917319 321.45465305 118.59194915 321.45898438 122.65478516 C321.46445987 126.83187573 321.4884765 131.00863885 321.51695633 135.18562698 C321.53566864 138.41488559 321.54079289 141.64406672 321.54232025 144.87337494 C321.54532874 146.41221656 321.55329565 147.95105741 321.56650543 149.48984528 C321.66768591 162.18376289 320.73595204 170.82626125 311.765625 180.265625 C307.95576436 183.51452456 304.00613448 185.12282965 299.21875 186.4375 C298.65394865 186.61242652 298.0891473 186.78735305 297.50723076 186.96758038 C294.42398415 187.60069825 291.48965771 187.57001689 288.34133911 187.5773077 C287.29892641 187.58173484 287.29892641 187.58173484 286.23545486 187.58625141 C283.8954024 187.59494711 281.55539934 187.59652348 279.21533203 187.59812927 C277.52513798 187.60285994 275.83494506 187.60801081 274.14475346 187.61354691 C269.49091397 187.627461 264.8370823 187.63503887 260.1832273 187.6415199 C256.19370692 187.64788919 252.20419941 187.65795955 248.21468705 187.66808056 C235.06969543 187.70141144 221.92469599 187.72292741 208.77967596 187.74128041 C205.35688728 187.74607535 201.93409892 187.75105868 198.51131058 187.75608563 C177.25712455 187.78705701 156.0029358 187.81374297 134.74873352 187.83050442 C129.82516475 187.83445393 124.90159602 187.83845692 119.97802734 187.8425293 C118.14242793 187.84404184 118.14242793 187.84404184 116.26974571 187.84558494 C96.44844146 187.86258985 76.62726211 187.90369684 56.80601883 187.95455229 C36.45657131 188.00633349 16.10718802 188.03544736 -4.24232483 188.0427013 C-15.66804849 188.04736292 -27.09356765 188.06210778 -38.51922607 188.1024456 C-48.250569 188.13675995 -57.9816705 188.15067915 -67.71307045 188.13802146 C-72.67668382 188.13219793 -77.63978671 188.13603725 -82.60332298 188.1661911 C-87.15241491 188.19360112 -91.70063483 188.19301925 -96.24974656 188.17068065 C-97.89048861 188.16746448 -99.53128954 188.17428648 -101.17193389 188.19247787 C-112.30848837 188.30841773 -121.66183823 186.97984896 -130.27531528 179.178626 C-139.20685925 170.04115007 -139.24577704 160.46532861 -139.21484375 148.36328125 C-139.2194141 146.79159827 -139.22472219 145.21991728 -139.23072815 143.64823914 C-139.23963461 140.36086898 -139.23726692 137.07374203 -139.22729492 133.78637695 C-139.21584638 129.60846843 -139.23596535 125.43141037 -139.26521206 121.25361347 C-139.28371744 118.00785632 -139.28325274 114.76229724 -139.27757454 111.51650047 C-139.27742286 109.97817994 -139.28333758 108.43984462 -139.29586601 106.90157509 C-139.41302978 90.15087126 -135.56692229 74.88791779 -123.53125 62.625 C-118.68538035 58.00957252 -113.75545585 54.43479781 -107.78125 51.4375 C-107.10835937 51.09976563 -106.43546875 50.76203125 -105.7421875 50.4140625 C-102.46804308 48.89541679 -100.46362399 48.4375 -96.78125 48.4375 C-96.75546875 47.65246094 -96.7296875 46.86742187 -96.703125 46.05859375 C-96.08337099 34.57905923 -96.08337099 34.57905923 -91.78125 29.4375 C-83.88584184 24.4375 -83.88584184 24.4375 -79.78125 24.4375 C-79.74257812 23.40302734 -79.74257812 23.40302734 -79.703125 22.34765625 C-79.15246596 13.22423708 -76.86062574 5.86111015 -70.62890625 -0.9921875 C-54.1558247 -14.99256548 -16.09997955 -14.12278908 0 0 Z M281.21875 59.4375 C281.2909375 60.21609375 281.363125 60.9946875 281.4375 61.796875 C282.76001587 77.7405386 283.75897193 93.15524274 278.21875 108.4375 C277.76822266 109.68539307 277.76822266 109.68539307 277.30859375 110.95849609 C276.30400004 113.69108948 275.27001818 116.41003654 274.21875 119.125 C273.88681641 119.98738281 273.55488281 120.84976563 273.21289062 121.73828125 C271.16417361 126.80976149 269.33678152 130.87848424 264.21875 133.4375 C260.36478057 134.11579862 256.75889884 134.46206254 253.3984375 132.2265625 C249.68549153 128.25240425 248.20104721 124.02376898 246.85546875 118.828125 C246.17295252 116.26554871 245.18244626 113.92915796 244.08203125 111.51953125 C242.90818468 108.68848951 241.99840887 105.78294591 241.03125 102.875 C236.91196967 91.304126 230.85185104 79.37572868 221.21875 71.4375 C218.75352644 70.34278203 218.75352644 70.34278203 216.21875 70.4375 C199.45914255 80.67390694 192.99531442 108.36549333 187.38671875 125.79296875 C186.07877279 128.75443837 184.70204856 130.37990977 182.21875 132.4375 C178.47034595 133.68696802 175.09943907 134.17849772 171.21875 133.4375 C162.7033876 126.54411139 159.21092832 111.58370467 156.21875 101.4375 C155.68894531 99.65472656 155.68894531 99.65472656 155.1484375 97.8359375 C153.82286563 92.4351278 153.7600395 86.97355456 153.59375 81.4375 C153.55507813 80.37660156 153.51640625 79.31570312 153.4765625 78.22265625 C153.38305306 75.62776933 153.29730098 73.03287551 153.21875 70.4375 C150.63533599 70.40941941 148.05225151 70.39017157 145.46875 70.375 C144.7778125 70.36662109 144.086875 70.35824219 143.375 70.34960938 C138.47692103 70.32849697 133.61039891 70.51290382 128.72192383 70.79046631 C116.46511748 71.48078175 104.23177587 71.62366376 91.95703125 71.62280273 C88.4868541 71.6249886 85.01699638 71.6432287 81.546875 71.66210938 C69.34765132 71.69159332 57.30257008 71.3298316 45.15655518 70.13945007 C39.4742578 69.58282108 33.92958073 69.34518974 28.21875 69.4375 C28.23514023 70.04860123 28.25153046 70.65970245 28.26841736 71.2893219 C28.77348397 91.01564644 27.42114896 115.06754826 14.05859375 131.015625 C10.43399758 133.81679911 7.76610909 133.74579553 3.21875 133.4375 C-0.50713402 132.05112455 -2.05930371 130.29864696 -3.84375 126.875 C-4.51042236 125.40510793 -5.15526127 123.92517363 -5.78125 122.4375 C-6.10996094 121.67050781 -6.43867188 120.90351563 -6.77734375 120.11328125 C-8.58956224 115.73434086 -10.13267508 111.3394662 -11.53125 106.8125 C-15.28411519 95.40673325 -20.74626703 84.42009767 -28.78125 75.4375 C-29.23371094 74.88191406 -29.68617187 74.32632813 -30.15234375 73.75390625 C-32.05249888 71.56961577 -33.2339606 70.49510941 -36.15625 70.1875 C-50.68253176 77.10477703 -56.68917021 97.41676812 -61.78125 111.4375 C-62.35167929 113.07628111 -62.91694778 114.71686945 -63.4765625 116.359375 C-63.74065918 117.1318457 -64.00475586 117.90431641 -64.27685547 118.70019531 C-64.76518572 120.14843429 -65.24159621 121.60077032 -65.70361328 123.05761719 C-67.0479981 127.10378505 -68.41372564 129.77480632 -71.78125 132.4375 C-75.50939122 133.68021374 -78.91374778 134.08966704 -82.78125 133.4375 C-91.35682428 127.20071871 -93.77711087 115.11082799 -96.78125 105.4375 C-97.10609375 104.48101562 -97.4309375 103.52453125 -97.765625 102.5390625 C-101.77780032 89.32916452 -100.35532185 74.01386972 -98.78125 60.4375 C-106.75188728 61.28021055 -112.50143766 65.96475752 -117.90625 71.6875 C-127.56993101 83.68379367 -129.10331205 95.30534677 -129.15234375 110.40234375 C-129.16133194 111.84526145 -129.1704541 113.28817831 -129.17970276 114.73109436 C-129.19610539 117.74254607 -129.2038773 120.75388773 -129.20678711 123.76538086 C-129.2121743 127.59953724 -129.2499043 131.43264191 -129.29553127 135.26650143 C-129.32545379 138.24275892 -129.33251386 141.21876708 -129.33351326 144.19516182 C-129.3376824 145.60760905 -129.34998177 147.02005935 -129.37103081 148.43235588 C-129.50121851 157.91818048 -128.95396696 165.67128997 -122.43140107 172.9422242 C-115.72088893 179.09193192 -107.79546156 178.27500101 -99.24539185 178.19940186 C-97.54618436 178.20631896 -95.84698585 178.21585076 -94.14780605 178.22776532 C-89.48749344 178.25279235 -84.82791885 178.24044243 -80.16760373 178.22184801 C-75.13814393 178.20826993 -70.10881084 178.2292281 -65.07937622 178.24572754 C-55.22972339 178.27241108 -45.38034485 178.26664261 -35.53068127 178.24925169 C-27.52464143 178.2357013 -19.51867847 178.23386372 -11.51263046 178.24039459 C-10.37315278 178.24131399 -9.2336751 178.24223339 -8.05966779 178.24318065 C-5.74481335 178.24509901 -3.42995893 178.24704429 -1.11510454 178.2490162 C20.59346233 178.26612697 42.3018772 178.24645193 64.01041915 178.214214 C82.63316159 178.18741451 101.25567959 178.19205746 119.87841797 178.21972656 C141.50619964 178.25184544 163.13384802 178.2644714 184.7616502 178.24605298 C187.06859976 178.2441417 189.37554934 178.24225548 191.68249893 178.24039459 C192.81754534 178.23946894 193.95259175 178.23854329 195.1220335 178.23758958 C203.11647201 178.23241143 211.11082591 178.24114836 219.10525131 178.25527191 C228.85087382 178.27211077 238.59620643 178.26752367 248.34179579 178.23558745 C253.31325664 178.21983237 258.28423439 178.21362009 263.25569153 178.23348236 C267.80950741 178.25140063 272.36239377 178.24147313 276.91612567 178.20961705 C278.56072799 178.2029313 280.20540931 178.20628778 281.84996055 178.22087178 C291.11274235 178.29669418 298.93341446 177.95169819 306.21875 171.4375 C308.00279073 169.13276092 309.02519623 167.13596939 310.21875 164.4375 C310.54875 163.7775 310.87875 163.1175 311.21875 162.4375 C311.32059324 160.39714851 311.3571702 158.35342705 311.36401367 156.31054688 C311.37039352 155.02160522 311.37677338 153.73266357 311.38334656 152.40466309 C311.38487629 150.98852577 311.38598968 149.57238795 311.38671875 148.15625 C311.38993308 146.70332812 311.39329728 145.25040656 311.39680481 143.79748535 C311.40280187 140.74421439 311.4046444 137.69097175 311.40405273 134.63769531 C311.40395172 130.7487819 311.41753809 126.86005356 311.43482494 122.97118378 C311.44602146 119.96491689 311.44796952 116.95869343 311.44744301 113.95240784 C311.44861416 112.52046579 311.45298671 111.08852229 311.46077538 109.65660095 C311.53574024 94.43502595 309.86119269 81.7983278 299.1796875 70.25390625 C295.83481478 67.15556798 292.11324506 64.78296513 288.21875 62.4375 C287.249375 61.81875 286.28 61.2 285.28125 60.5625 C283.31767952 59.27788262 283.31767952 59.27788262 281.21875 59.4375 Z " fill="#242422" transform="translate(148.78125,130.5625)"/>
<path d="M0 0 C7.08560359 1.73101065 13.21332653 0.03319124 20.0234375 -1.9140625 C29.96891517 -4.56472137 40.77950301 -6.93511828 50.59765625 -2.45703125 C60.89276829 3.50564752 66.02377375 11.20600269 71.3984375 21.5859375 C71.58277344 20.98007812 71.76710937 20.37421875 71.95703125 19.75 C75.51822883 9.46209587 82.55348241 1.37477312 92.3984375 -3.4140625 C102.33889421 -6.72754807 113.19732238 -4.56772849 122.78222656 -1.21044922 C130.97498621 1.60159385 137.98974479 1.62986767 146.03515625 -1.5625 C155.59606793 -5.00758884 166.88479414 -6.58013798 176.69921875 -3.31640625 C187.00533299 2.02908869 192.34222221 9.34386038 197.3984375 19.5859375 C199.4513066 16.92080919 201.26214514 14.19932508 203.0234375 11.3359375 C207.08935531 5.22192709 213.09589553 -1.53053195 220.234375 -4.0078125 C230.62586263 -5.95856108 239.60880409 -4.06039403 249.53540039 -1.2109375 C258.02912371 1.1725362 266.1399834 2.24368555 274.38671875 -1.5625 C282.98609793 -5.20262555 293.85358173 -6.30100322 302.8359375 -3.2890625 C312.65956169 1.27114482 320.58174351 9.43700121 324.3984375 19.5859375 C326.13680709 25.44904066 326.75314399 30.7339957 326.7109375 36.8359375 C326.70674805 37.66859131 326.70255859 38.50124512 326.69824219 39.35913086 C326.57537013 46.10467614 325.60343104 52.187687 323.3984375 58.5859375 C322.94597656 59.97619141 322.94597656 59.97619141 322.484375 61.39453125 C321.13739648 65.16716622 319.76606089 68.12100204 317.2734375 71.2734375 C310.17924189 74.51209202 301.5537262 71.01799187 294.37182617 69.046875 C283.56763574 66.14081751 272.50809284 66.27262474 261.3984375 66.2109375 C260.55817017 66.20537842 259.71790283 66.19981934 258.85217285 66.1940918 C245.91054809 66.15099614 234.10356765 67.33198641 221.5078125 70.4921875 C216.51126419 71.6972822 211.52212952 72.25075523 206.3984375 71.5859375 C201.61175812 67.93294535 200.22949862 61.14729866 198.3984375 55.5859375 C198.14449219 56.09382813 197.89054688 56.60171875 197.62890625 57.125 C196.91275923 58.55729403 196.19385987 59.9882142 195.47265625 61.41796875 C194.57656396 63.22644593 193.7310052 65.05985051 192.8984375 66.8984375 C190.4979481 71.19931434 190.4979481 71.19931434 187.3984375 72.5859375 C182.15247444 72.41939899 177.36621138 71.36995153 172.2734375 70.1484375 C159.23688019 67.05224274 146.37106548 66.15414543 133.0234375 66.1484375 C132.24550842 66.14537598 131.46757935 66.14231445 130.66607666 66.13916016 C118.23342123 66.12645075 106.6796179 67.4876863 94.578125 70.4921875 C89.55321546 71.68684205 84.54843004 72.24017912 79.3984375 71.5859375 C74.34153751 67.85980067 73.14023871 60.39502983 71.3984375 54.5859375 C69.85746464 57.51853784 68.70219158 60.46992611 67.5859375 63.5859375 C65.87113289 67.80747467 64.72042878 70.61285453 60.3984375 72.5859375 C55.43550977 72.82973044 50.90424458 71.86946542 46.2734375 70.1484375 C34.18181264 65.79740619 20.28763556 66.21653206 7.5859375 66.2734375 C6.40928528 66.27467621 6.40928528 66.27467621 5.2088623 66.27593994 C-8.14619433 66.30824124 -20.78701042 67.29617661 -33.7578125 70.66015625 C-36.89751581 71.41636528 -39.64087093 71.93540241 -42.8515625 72.0234375 C-44.06585938 72.08337891 -44.06585938 72.08337891 -45.3046875 72.14453125 C-48.78447625 71.29825609 -49.70575444 69.56619526 -51.6015625 66.5859375 C-52.61594132 64.07049677 -53.49503868 61.66460008 -54.2890625 59.0859375 C-54.60713867 58.10947266 -54.60713867 58.10947266 -54.93164062 57.11328125 C-59.02219011 44.33837909 -60.28253032 28.26387395 -54.0859375 16.02734375 C-49.57938498 8.6152508 -43.35614381 -0.13439131 -34.7265625 -3.046875 C-22.74849953 -5.82120576 -11.3622673 -4.53592489 0 0 Z " fill="#262624" transform="translate(105.6015625,23.4140625)"/>
<path d="M0 0 C4.56268752 4.47088294 5.09260422 8.45234555 5.2734375 14.65234375 C5.83801085 19.83136332 8.77817364 23.6112189 12.44140625 27.15234375 C14.72258735 28.51284916 14.72258735 28.51284916 18.08984375 29.5234375 C21.56640625 31.33984375 21.56640625 31.33984375 22.80078125 34.10546875 C22.9709375 35.2553125 23.14109375 36.40515625 23.31640625 37.58984375 C23.41800049 38.23244141 23.51959473 38.87503906 23.62426758 39.53710938 C23.8459118 40.98664575 24.0510375 42.43877049 24.24267578 43.89257812 C24.59728699 46.57328907 25.00120994 49.24443097 25.40625 51.91796875 C28.97572186 76.27055383 26.99969622 96.03664331 15.56640625 118.33984375 C14.90640625 118.33984375 14.24640625 118.33984375 13.56640625 118.33984375 C11.15410273 112.87047356 8.88403131 107.40482081 7.02734375 101.72265625 C1.40280811 84.54148408 -5.69859728 69.12061831 -19.24609375 56.77734375 C-24.08961178 54.59301209 -28.23041165 54.19892254 -33.43359375 55.33984375 C-51.88185507 65.26647443 -60.11834472 94.17006492 -65.75878906 112.65136719 C-66.32490214 114.5451987 -66.88055266 116.44215374 -67.43359375 118.33984375 C-71.27441406 117.55615234 -71.27441406 117.55615234 -72.70703125 115.609375 C-75.60549629 109.14435901 -77.7580807 102.50908752 -79.74609375 95.71484375 C-80.14610596 94.42090698 -80.14610596 94.42090698 -80.55419922 93.10083008 C-84.32670006 79.51263424 -82.55861308 65.41316239 -80.40722656 51.69580078 C-80.05144105 49.41907245 -79.71795792 47.13979202 -79.38671875 44.859375 C-77.71712151 33.76513539 -77.71712151 33.76513539 -75.43359375 30.33984375 C-73.15625 29.05859375 -73.15625 29.05859375 -70.49609375 27.83984375 C-65.88099696 25.82408092 -65.88099696 25.82408092 -62.43359375 22.33984375 C-61.91658949 19.75769468 -61.52166937 17.25594197 -61.18359375 14.65234375 C-60.20881572 8.74018937 -59.21302424 4.06366351 -54.6640625 -0.17578125 C-40.98745648 -9.27755058 -13.6966467 -9.34361934 0 0 Z " fill="#FBFBFB" transform="translate(140.43359375,136.66015625)"/>
<path d="M0 0 C1.43279297 -0.01740234 1.43279297 -0.01740234 2.89453125 -0.03515625 C13.10278646 0.00628457 22.35149348 1.94488974 30.1875 8.6875 C32.85220665 11.96081249 32.99996352 15.19090636 33.4375 19.3125 C34.06634716 24.73773598 34.73251254 28.1872717 38.64453125 32.0703125 C41.39774258 34.00625478 44.33396806 35.10081357 47.546875 36.0625 C50.01462762 37.72082976 50.44695839 39.32188565 51.10595703 42.15917969 C51.92282528 46.75267176 52.50708944 51.36863998 53.0625 56 C53.31227223 58.03404261 53.56352297 60.06790433 53.81640625 62.1015625 C53.92412354 62.99439941 54.03184082 63.88723633 54.14282227 64.80712891 C54.38396367 66.54077572 54.67986411 68.26755371 55.02563477 69.98339844 C58.49442223 87.47194297 52.66668148 107.88954386 44.5 123.375 C43.015 123.87 43.015 123.87 41.5 124.375 C38.93497788 117.80417738 36.44799838 111.24404114 34.1875 104.5625 C28.34819869 88.12459223 20.33361726 71.26407817 5.5 61.375 C-0.08651899 60.55564388 -4.82613132 61.09334752 -9.5 64.375 C-20.84223069 74.7720448 -27.33520095 89.18481218 -32.5 103.375 C-33.13971122 105.09799579 -33.78038807 106.82063328 -34.421875 108.54296875 C-36.13180117 113.14746472 -37.82064947 117.75927029 -39.5 122.375 C-40.82 122.375 -42.14 122.375 -43.5 122.375 C-50.37607747 106.73136744 -50.37607747 106.73136744 -52.5 99.375 C-52.70496094 98.73175781 -52.90992188 98.08851563 -53.12109375 97.42578125 C-56.62254512 84.74811251 -54.47692463 70.50405853 -52.47363281 57.73095703 C-52.1178473 55.4542287 -51.78436417 53.17494827 -51.453125 50.89453125 C-49.78352776 39.80029164 -49.78352776 39.80029164 -47.5 36.375 C-43.875 35.6875 -43.875 35.6875 -40.5 35.375 C-40.5 34.715 -40.5 34.055 -40.5 33.375 C-39.02273664 32.18676643 -37.54120618 31.00157744 -36.0078125 29.88671875 C-32.39202304 26.26156196 -32.09700947 21.28671624 -31.3125 16.4375 C-29.6649827 8.67874856 -29.6649827 8.67874856 -26.5 5.6875 C-18.53308546 0.55573216 -9.23270519 -0.11213812 0 0 Z " fill="#FBFBFB" transform="translate(366.5,130.625)"/>
<path d="M0 0 C0.62777344 0.3196875 1.25554687 0.639375 1.90234375 0.96875 C12.46821706 3.61021833 22.29059356 1.707179 32.52001953 -1.25244141 C39.73282351 -3.26708683 47.2585238 -4.82739075 54.08984375 -1.03125 C60.94043647 3.89564093 66.90428116 10.63159597 68.90234375 18.96875 C69.80759467 28.73105817 68.8962244 37.59279207 65.90234375 46.96875 C65.31453125 48.825 65.31453125 48.825 64.71484375 50.71875 C64.44671875 51.46125 64.17859375 52.20375 63.90234375 52.96875 C61.59930126 52.52299984 59.30309527 52.06267776 57.01904297 51.52734375 C29.87625671 45.18924427 3.06382221 45.8474203 -24.24267578 50.51123047 C-28.18409402 51.14285504 -32.12616012 51.5728506 -36.09765625 51.96875 C-36.74809344 50.24130984 -37.39280469 48.5117131 -38.03515625 46.78125 C-38.39480469 45.81832031 -38.75445312 44.85539062 -39.125 43.86328125 C-42.40670639 34.09723935 -42.92121052 21.60107708 -38.43359375 12.1484375 C-29.70864552 -2.08700434 -15.6224289 -7.68030024 0 0 Z " fill="#FBFBFB" transform="translate(99.09765625,32.03125)"/>
<path d="M0 0 C0.94746094 0.35964844 1.89492188 0.71929688 2.87109375 1.08984375 C14.41374061 5.26127926 25.86581873 3.17581914 37.28149414 -0.15869141 C44.03623711 -2.06955024 50.72022595 -3.23350514 57.515625 -0.94140625 C65.88221866 4.30905814 70.15304346 10.84433971 73.5625 20.0625 C73.89951805 22.79796319 74.08557778 25.21207808 74.0625 27.9375 C74.0615332 29.02212524 74.0615332 29.02212524 74.06054688 30.12866211 C73.83631971 38.52000198 71.31788585 46.19980967 68.5625 54.0625 C63.11197775 53.30365888 57.67993421 52.4564256 52.25 51.5625 C51.03473633 51.36720703 51.03473633 51.36720703 49.79492188 51.16796875 C43.79516693 50.17883346 43.79516693 50.17883346 41.5625 49.0625 C20.32735629 45.66319834 -2.68040604 47.65720375 -23.47460938 52.66992188 C-26.14762776 53.20452555 -28.72341145 53.20168403 -31.4375 53.0625 C-32.09006456 51.35672658 -32.73423041 49.64773911 -33.375 47.9375 C-33.73464844 46.98617187 -34.09429687 46.03484375 -34.46484375 45.0546875 C-37.65677614 35.23532924 -38.3506483 22.90602745 -33.90625 13.4140625 C-25.34114802 -0.29921247 -15.61241902 -5.28123804 0 0 Z " fill="#FBFBFB" transform="translate(348.4375,30.9375)"/>
<path d="M0 0 C6.83948499 4.91890234 12.87309762 11.66056977 14.8125 20 C16.34012495 32.13058913 14.12334656 42.69942365 9.8125 54 C9.11568115 53.85957275 8.4188623 53.71914551 7.70092773 53.57446289 C-21.58393552 47.75016374 -48.98323875 45.87370179 -78.58447266 51.54248047 C-82.43819483 52.21982762 -86.29407612 52.61986098 -90.1875 53 C-90.83793719 51.27255984 -91.48264844 49.5429631 -92.125 47.8125 C-92.48464844 46.84957031 -92.84429687 45.88664062 -93.21484375 44.89453125 C-96.84050641 34.10490863 -96.73255747 21.93449194 -91.8203125 11.6328125 C-88.54113763 6.34533915 -84.33390206 2.4309347 -79.1875 -1 C-70.64057124 -1.89857686 -62.71022345 -1.15391704 -54.4375 1 C-42.5543399 4.03702949 -33.31521903 3.17143859 -21.56713867 -0.22045898 C-14.35687439 -2.23875818 -6.82923116 -3.79498002 0 0 Z " fill="#FCFCFB" transform="translate(280.1875,31)"/>
<path d="M0 0 C3 0.25 3 0.25 5 2.25 C5.24543141 4.89787789 5.37349386 7.44903823 5.4140625 10.1015625 C5.43342865 10.87559418 5.4527948 11.64962585 5.4727478 12.44711304 C5.5325983 14.92296275 5.57895011 17.39885883 5.625 19.875 C5.66317482 21.55210377 5.70222625 23.22918784 5.7421875 24.90625 C5.83830409 29.02067353 5.92231439 33.13518886 6 37.25 C6.76957031 36.43402344 7.53914063 35.61804688 8.33203125 34.77734375 C11 32.25 11 32.25 13.6875 31.8125 C16 32.25 16 32.25 18 34.25 C18.5625 36.875 18.5625 36.875 18 40.25 C15.96718736 43.21501962 13.51430861 45.69140807 11 48.25 C10.41347656 48.9203125 9.82695312 49.590625 9.22265625 50.28125 C6.39512274 53.41013062 4.42835274 55.08467087 0.4375 56.625 C-3.38464047 56.20803922 -3.67150402 55.96069547 -6 53.1875 C-6.47953125 52.54167969 -6.9590625 51.89585937 -7.453125 51.23046875 C-9.49731575 48.61328513 -11.90414574 46.67820747 -14.484375 44.609375 C-17.07398548 42.28673467 -17.96763269 40.64649953 -18.25 37.1875 C-18 34.25 -18 34.25 -16 32.25 C-13.6875 31.8125 -13.6875 31.8125 -11 32.25 C-9.28884728 33.87096019 -7.61719366 35.53528713 -6 37.25 C-5.970271 35.67532959 -5.970271 35.67532959 -5.93994141 34.06884766 C-5.86397802 30.18106739 -5.77524702 26.29366597 -5.68261719 22.40625 C-5.64428896 20.72240671 -5.60944288 19.03848045 -5.578125 17.35449219 C-5.53255713 14.93654694 -5.47455077 12.51917472 -5.4140625 10.1015625 C-5.39673569 8.96867294 -5.39673569 8.96867294 -5.37905884 7.81289673 C-5.16968829 0.43080736 -5.16968829 0.43080736 0 0 Z " fill="#232321" transform="translate(240,112.75)"/>
<path d="M0 0 C10.125 0 10.125 0 15.12890625 0.4375 C16.70961914 0.57285156 16.70961914 0.57285156 18.32226562 0.7109375 C19.92618164 0.85402344 19.92618164 0.85402344 21.5625 1 C23.21862305 1.14308594 23.21862305 1.14308594 24.90820312 1.2890625 C27.60578644 1.5226195 30.30301301 1.75967126 33 2 C33 2.33 33 2.66 33 3 C23.1 3 13.2 3 3 3 C2.75075824 9.11741167 2.75075824 9.11741167 2.52197266 15.2355957 C2.4863623 15.99960693 2.45075195 16.76361816 2.4140625 17.55078125 C2.3826416 18.33106689 2.3512207 19.11135254 2.31884766 19.9152832 C2 22 2 22 0 25 C0 16.75 0 8.5 0 0 Z " fill="#C0C0BE" transform="translate(177,200)"/>
<path d="M0 0 C0.66 0.33 1.32 0.66 2 1 C1.51789063 1.49886719 1.03578125 1.99773437 0.5390625 2.51171875 C-5.10006361 8.92190905 -6.36311371 14.59050142 -7 23 C-7.66 23 -8.32 23 -9 23 C-8.45165567 14.40554189 -8.00127371 7.50938758 -1.4609375 1.22265625 C-0.97882813 0.81917969 -0.49671875 0.41570312 0 0 Z " fill="#BBBBBA" transform="translate(88,135)"/>
<path d="M0 0 C2.125 0.375 2.125 0.375 4 1 C3.45730469 1.47050781 2.91460937 1.94101563 2.35546875 2.42578125 C1.28232422 3.35970703 1.28232422 3.35970703 0.1875 4.3125 C-0.52019531 4.92738281 -1.22789062 5.54226562 -1.95703125 6.17578125 C-3.70136739 7.73334335 -5.36778041 9.32658875 -7 11 C-7.66 10.67 -8.32 10.34 -9 10 C-7.8758824 8.70756532 -6.75067408 7.41607925 -5.625 6.125 C-4.99851562 5.40570313 -4.37203125 4.68640625 -3.7265625 3.9453125 C-2.52573166 2.5923402 -1.2791655 1.2791655 0 0 Z " fill="#D6D6D4" transform="translate(365,201)"/>
<path d="M0 0 C-1.53643852 3.68069887 -3.78150945 5.98775204 -6.625 8.75 C-7.85089844 9.94882813 -7.85089844 9.94882813 -9.1015625 11.171875 C-9.72804688 11.77515625 -10.35453125 12.3784375 -11 13 C-11 8.89253434 -9.36039564 7.80245139 -6.625 4.8125 C-5.81289062 3.91144531 -5.00078125 3.01039063 -4.1640625 2.08203125 C-2 0 -2 0 0 0 Z " fill="#464645" transform="translate(106,193)"/>
<path d="M0 0 C0.66 0.33 1.32 0.66 2 1 C0.56665422 2.62866544 -0.87182979 4.25280994 -2.3125 5.875 C-3.51326172 7.23238281 -3.51326172 7.23238281 -4.73828125 8.6171875 C-7 11 -7 11 -10 13 C-8.56501627 9.79111679 -6.78256013 7.42193016 -4.4375 4.8125 C-3.81746094 4.11769531 -3.19742187 3.42289063 -2.55859375 2.70703125 C-1.72141231 1.79011824 -0.8779528 0.8779528 0 0 Z " fill="#494947" transform="translate(358,193)"/>
<path d="M0 0 C0.66 0 1.32 0 2 0 C-0.02564422 4.20710722 -2.4112324 8.1168486 -5 12 C-4.58894145 6.75900345 -3.75960806 3.75960806 0 0 Z " fill="#585857" transform="translate(58,159)"/>
<path d="M0 0 C0.99 0.33 1.98 0.66 3 1 C2.67 5.29 2.34 9.58 2 14 C1.67 14 1.34 14 1 14 C0.67 9.38 0.34 4.76 0 0 Z " fill="#BEBEBC" transform="translate(430,190)"/>
<path d="M0 0 C0.66 0.33 1.32 0.66 2 1 C0.02 3.31 -1.96 5.62 -4 8 C-4.33 7.01 -4.66 6.02 -5 5 C-3.35 3.35 -1.7 1.7 0 0 Z " fill="#DADAD8" transform="translate(88,135)"/>
<path d="M0 0 C0.66 0 1.32 0 2 0 C0.47291037 3.43595166 -1.59927045 6.11912454 -4 9 C-3.4739075 5.21213403 -2.61896089 2.82847776 0 0 Z " fill="#4C4C4A" transform="translate(312,159)"/>
</svg>
